# xmcd
#
# Track frame offsets:
#       150
#       20911
#       43050
#       55104
#       64742
#       84997
#       99193
#       110700
#       122261
#       134789
#       150901
#       164306
#       174674
#       191732
#       203789
#       213484
#       226077
#       240036
#
# Disc length: 3380 seconds
#
# Revision: 0
# Processed by: cddbd v1.4PL0 Copyright (c) Steve Scherf et al.
# Submitted via: WhereIsIt 3.26
#
DISCID=ea0d3212
DTITLE=Anthologie sonore du socialisme CD2
DYEAR=1900
DGENRE=
TTITLE0=La semaine sanglante
TTITLE1=Vision d'horreur
TTITLE2=La fille de Madame Angot
TTITLE3=Une réunion éléctorale
TTITLE4=L'école laïque a cinquante ans
TTITLE5=La valse brune
TTITLE6=L'Internationale
TTITLE7=Si j'étais Dieu
TTITLE8=D'une prison
TTITLE9=La fiancée du pirate
TTITLE10=L'impôt sur les fainéants
TTITLE11=La grève des forgerons
TTITLE12=Formons la chaîne
TTITLE13=Pas d'aumône
TTITLE14=Jean Longuet
TTITLE15=Le joyeux chaudronnier
TTITLE16=Quand on a travaillé
TTITLE17=Meeting de protestation
EXTD=
EXTT0=
EXTT1=
EXTT2=
EXTT3=
EXTT4=
EXTT5=
EXTT6=
EXTT7=
EXTT8=
EXTT9=
EXTT10=
EXTT11=
EXTT12=
EXTT13=
EXTT14=
EXTT15=
EXTT16=
EXTT17=
PLAYORDER=
